<svg width="18" height="18" viewBox="0 0 18 18" fill="none" xmlns="http://www.w3.org/2000/svg">
<path d="M17.807 13.6503C17.137 12.3836 14.8101 11.0101 14.7077 10.9501C14.4087 10.7799 14.0967 10.6898 13.8047 10.6898C13.3706 10.6898 13.0152 10.8887 12.8 11.2504C12.4596 11.6575 12.0375 12.1333 11.935 12.2071C11.1422 12.745 10.5215 12.6839 9.83478 11.9972L6.002 8.16408C5.3196 7.48168 5.25687 6.85334 5.79111 6.06482C5.86585 5.96171 6.3417 5.53926 6.7488 5.19856C7.00842 5.04406 7.18661 4.81448 7.26469 4.53284C7.36847 4.15811 7.29205 3.7173 7.04712 3.28784C6.98939 3.18907 5.61525 0.861901 4.34923 0.192182C4.11297 0.0670475 3.84669 0.000976562 3.57973 0.000976562C3.13993 0.000976562 2.72615 0.172494 2.41515 0.483161L1.56824 1.32974C0.2288 2.66884 -0.256054 4.18681 0.126357 5.84125C0.445366 7.22006 1.37503 8.68731 2.88999 10.2019L7.79693 15.1089C9.71432 17.0263 11.5423 17.9986 13.2301 17.9986C13.2301 17.9986 13.2301 17.9986 13.2304 17.9986C14.4718 17.9986 15.629 17.4711 16.6691 16.431L17.5157 15.5844C18.0303 15.0702 18.147 14.2927 17.807 13.6503Z" fill="#E20A17"/>
</svg>
