<svg width="17" height="20" viewBox="0 0 17 20" fill="none" xmlns="http://www.w3.org/2000/svg">
<path fill-rule="evenodd" clip-rule="evenodd" d="M2.38305 2.38308C3.91297 0.877884 5.97565 0.0382034 8.12185 0.0469425C10.268 0.0556817 12.3239 0.912151 13.8415 2.42976C15.3591 3.94736 16.2155 6.00323 16.2243 8.14943C16.233 10.2956 15.3933 12.3584 13.8881 13.8883C12.2983 15.4781 8.12541 20.0001 8.12541 20.0001C8.12541 20.0001 3.9695 15.4747 2.38305 13.8883C0.857452 12.3626 0.000366211 10.2933 0.000366211 8.13569C0.000366211 5.97809 0.857452 3.90878 2.38305 2.38308ZM8.13559 5.16959C8.72223 5.16959 9.29568 5.34354 9.78345 5.66946C10.2712 5.99538 10.6514 6.45858 10.8759 7.00056C11.1004 7.54255 11.1592 8.13898 11.0447 8.71435C10.9303 9.28972 10.6477 9.81817 10.2329 10.233C9.8181 10.6478 9.28961 10.9304 8.71424 11.0449C8.13887 11.1593 7.54248 11.1005 7.0005 10.876C6.45851 10.6515 5.99527 10.2714 5.66935 9.7836C5.34343 9.29583 5.16949 8.72233 5.16949 8.13569C5.16975 7.34912 5.48235 6.59476 6.03854 6.03857C6.59474 5.48237 7.34901 5.16986 8.13559 5.16959Z" fill="#E20A17"/>
</svg>
